<svg width="100" height="100" viewBox="0 0 100 100" fill="none" xmlns="http://www.w3.org/2000/svg">
<rect width="100" height="100" fill="#ADADAD"/>
<path d="M18.44 41V13.56H37.88V16.84H22.24V25.64H36.48V28.88H22.24V41H18.44ZM42.9322 41V13.56H46.7322V41H42.9322ZM50.5963 41L61.3163 26.6L51.5963 13.56H56.2763L63.7563 23.76H63.9563L71.3563 13.56H75.7963L66.1963 26.56L76.9163 41H72.2363L63.7563 29.44H63.5563L55.1163 41H50.5963ZM18.44 85V57.56H22.24V85H18.44ZM35.8241 85V60.88H26.4241V57.56H49.1041V60.88H39.6241V85H35.8241Z" fill="white"/>
</svg>
