<svg width="100" height="100" viewBox="0 0 100 100" fill="none" xmlns="http://www.w3.org/2000/svg">
<rect width="100" height="100" fill="#ADADAD"/>
<path d="M24.752 41V19.048H40.304V21.672H27.792V28.712H39.184V31.304H27.792V41H24.752ZM44.3458 41V19.048H47.3858V41H44.3458ZM50.477 41L59.053 29.48L51.277 19.048H55.021L61.005 27.208H61.165L67.085 19.048H70.637L62.957 29.448L71.533 41H67.789L61.005 31.752H60.845L54.093 41H50.477ZM24.752 76V54.048H27.792V76H24.752ZM38.6593 76V56.704H31.1393V54.048H49.2833V56.704H41.6993V76H38.6593Z" fill="white"/>
<g clip-path="url(#clip0_1_24)">
<path d="M60 64.75C59.1727 64.75 58.5 65.4227 58.5 66.25V72.25H60V66.25H69V72.25H70.5V66.25C70.5 65.4227 69.8273 64.75 69 64.75H60ZM57.45 73C57.2016 73 57 73.2016 57 73.45C57 74.4438 57.8063 75.25 58.8 75.25H70.2C71.1938 75.25 72 74.4438 72 73.45C72 73.2016 71.7984 73 71.55 73H57.45Z" fill="white"/>
</g>
<defs>
<clipPath id="clip0_1_24">
<rect width="15" height="12" fill="white" transform="translate(57 64)"/>
</clipPath>
</defs>
</svg>
